<svg width="120" height="28" viewBox="0 0 120 28" fill="none" xmlns="http://www.w3.org/2000/svg">
<path d="M27.6181 27.6184C32.7085 27.6184 36.8312 23.4957 36.8312 18.4053H18.426C18.426 23.4957 22.5487 27.6184 27.6181 27.6184Z" fill="black"/>
<path d="M9.21317 9.21313C4.12286 9.21313 0 13.3359 0 18.4263H18.4053C18.4263 13.3359 14.3035 9.21313 9.21317 9.21313Z" fill="black"/>
<path d="M27.6181 9.21317C32.7085 9.21317 36.8312 5.0904 36.8312 0H18.426C18.426 5.0904 22.5487 9.21317 27.6181 9.21317Z" fill="black"/>
<path d="M46.0221 18.4262C45.917 18.4262 45.8749 18.3631 45.8749 18.2579V9.38135C45.8749 9.2762 45.917 9.23413 46.0221 9.23413H50.0187C50.1239 9.23413 50.1869 9.2762 50.1869 9.38135V10.5803C50.1869 10.6854 50.1239 10.7486 50.0187 10.7486H47.5998V13.0413H49.7873C49.8925 13.0413 49.9345 13.0834 49.9345 13.1885V14.3034C49.9345 14.4085 49.8924 14.4716 49.7873 14.4716H47.5998V16.8906H50.0187C50.1239 16.8906 50.1869 16.9536 50.1869 17.0588V18.2367C50.1869 18.3418 50.1239 18.405 50.0187 18.405H46.0221V18.4262Z" fill="black"/>
<path d="M53.6978 18.4261C53.5926 18.4261 53.5505 18.363 53.5505 18.2368V9.40226C53.5505 9.29711 53.5926 9.23404 53.6978 9.23404H55.4016C55.4857 9.23404 55.5278 9.27612 55.5488 9.33919L56.4532 12.263C56.6426 12.8519 56.8108 13.3988 56.958 13.9037C57.1053 14.4086 57.2315 14.8502 57.3367 15.2499C57.4419 15.6496 57.526 15.9861 57.6102 16.2806H57.6522C57.6312 16.0702 57.6102 15.7969 57.5681 15.4393C57.5471 15.1027 57.505 14.7451 57.4839 14.3455C57.4629 13.9669 57.4419 13.5883 57.4419 13.2096C57.4209 12.831 57.4209 12.4945 57.4209 12.2V9.38135C57.4209 9.2762 57.4629 9.21313 57.5471 9.21313H58.8933C58.9984 9.21313 59.0405 9.2762 59.0405 9.38135V18.2369C59.0405 18.3421 58.9984 18.4051 58.9143 18.4051H57.1895C57.1054 18.4051 57.0633 18.3632 57.0212 18.279L56.1167 15.2921C55.9485 14.7451 55.8012 14.2404 55.654 13.7776C55.5279 13.3359 55.4016 12.9153 55.2964 12.5155C55.1913 12.1158 55.1071 11.7373 55.002 11.3797H54.9599C55.002 11.6532 55.0231 11.9687 55.044 12.3262C55.0651 12.6838 55.0861 13.0414 55.1072 13.399C55.1283 13.7566 55.1493 14.1142 55.1493 14.4508C55.1493 14.7873 55.1704 15.1028 55.1704 15.3552V18.2159C55.1704 18.3421 55.1073 18.4053 55.0021 18.4053H53.698V18.4261H53.6978Z" fill="black"/>
<path d="M62.7886 18.4262C62.6833 18.4262 62.6414 18.3631 62.6414 18.2579V9.38135C62.6414 9.2762 62.6833 9.23413 62.7886 9.23413H64.871C65.9858 9.23413 66.8061 9.54965 67.332 10.2018C67.8579 10.8539 68.1313 11.8425 68.1313 13.1887V14.3035C68.1313 15.6917 67.8578 16.7225 67.332 17.3955C66.806 18.0686 65.9858 18.4263 64.871 18.4263L62.7886 18.4262ZM64.3451 16.8486H64.8288C65.3758 16.8486 65.7754 16.6383 66.0277 16.2176C66.2802 15.797 66.4064 15.1449 66.4064 14.2403V13.1675C66.4064 12.3262 66.2802 11.6952 66.0488 11.3165C65.7963 10.9379 65.3967 10.7486 64.8499 10.7486H64.3661V16.8486H64.3451Z" fill="black"/>
<path d="M71.7049 18.4262C71.5998 18.4262 71.5577 18.3631 71.5577 18.2579V9.40234C71.5577 9.2972 71.5998 9.23413 71.7049 9.23413H73.1142C73.2193 9.23413 73.2614 9.2972 73.2614 9.40234V16.8696H75.5541C75.6383 16.8696 75.6804 16.9328 75.6804 17.0379V18.2579C75.6804 18.3632 75.6383 18.4262 75.5541 18.4262H71.7049Z" fill="black"/>
<path d="M78.9648 18.4262C78.8597 18.4262 78.8176 18.3631 78.8176 18.2579V9.38135C78.8176 9.2762 78.8597 9.23413 78.9648 9.23413H82.9614C83.0665 9.23413 83.1297 9.2762 83.1297 9.38135V10.5803C83.1297 10.6854 83.0665 10.7486 82.9614 10.7486H80.5424V13.0413H82.73C82.8352 13.0413 82.8773 13.0834 82.8773 13.1885V14.3034C82.8773 14.4085 82.8352 14.4716 82.73 14.4716H80.5424V16.8906H82.9614C83.0665 16.8906 83.1297 16.9536 83.1297 17.0588V18.2367C83.1297 18.3418 83.0665 18.405 82.9614 18.405H78.9648V18.4262Z" fill="black"/>
<path d="M88.6372 18.5103C87.7537 18.5103 87.0806 18.2578 86.66 17.7531C86.2182 17.2483 86.0709 16.5752 86.1972 15.7127C86.2182 15.6076 86.2603 15.5655 86.3444 15.5655H87.7537C87.8589 15.5655 87.9009 15.6287 87.8799 15.7549C87.8379 16.2176 87.8799 16.5542 88.0061 16.7646C88.1322 16.975 88.3426 17.0801 88.6371 17.0801C88.9106 17.0801 89.0999 16.996 89.2261 16.8487C89.3523 16.7015 89.4154 16.4701 89.4154 16.1756C89.4154 15.86 89.3524 15.5866 89.2472 15.3763C89.1421 15.166 88.9528 14.9556 88.6583 14.7453L87.3541 13.7777C86.9545 13.4831 86.6389 13.1466 86.4496 12.768C86.2602 12.3894 86.1551 11.9266 86.1551 11.3797C86.1761 10.6856 86.3865 10.1176 86.8072 9.71795C87.2278 9.31828 87.8169 9.10791 88.574 9.10791C89.4785 9.10791 90.1517 9.33936 90.5513 9.82309C90.972 10.3069 91.1192 10.98 91.0351 11.8424C91.0141 11.9056 91.0141 11.9475 90.993 11.9686C90.972 11.9896 90.9509 12.0106 90.9089 12.0106H89.4785C89.3735 12.0106 89.3314 11.9475 89.3524 11.8213C89.3945 11.4217 89.3524 11.1061 89.2472 10.8747C89.1421 10.6433 88.9317 10.5382 88.5952 10.5382C88.1114 10.5382 87.88 10.8116 87.88 11.3585C87.88 11.6319 87.922 11.8633 88.0272 12.0526C88.1323 12.242 88.3007 12.4313 88.5321 12.5996L89.8993 13.6093C90.3409 13.9248 90.6354 14.2824 90.8458 14.661C91.0352 15.0395 91.1403 15.5023 91.1403 16.0492C91.1403 16.8696 90.9299 17.5006 90.5093 17.8792C90.0887 18.321 89.4577 18.5103 88.6372 18.5103Z" fill="black"/>
<path d="M96.4207 18.5103C95.5372 18.5103 94.8642 18.2578 94.4434 17.7531C94.0018 17.2483 93.8545 16.5752 93.9807 15.7127C94.0018 15.6076 94.0438 15.5655 94.1279 15.5655H95.5372C95.6424 15.5655 95.6844 15.6287 95.6634 15.7549C95.6213 16.2176 95.6634 16.5542 95.7895 16.7646C95.9158 16.975 96.1261 17.0801 96.4207 17.0801C96.6941 17.0801 96.8833 16.996 97.0096 16.8487C97.1358 16.7015 97.199 16.4701 97.199 16.1756C97.199 15.86 97.1359 15.5866 97.0307 15.3763C96.9255 15.1659 96.7362 14.9556 96.4417 14.7453L95.1376 13.7777C94.7379 13.4831 94.4224 13.1466 94.2331 12.768C94.0437 12.3894 93.9385 11.9266 93.9385 11.3797C93.9595 10.6856 94.17 10.1176 94.5906 9.71795C95.0113 9.31828 95.6003 9.10791 96.3575 9.10791C97.2621 9.10791 97.9352 9.33936 98.3348 9.82309C98.7555 10.3069 98.9028 10.98 98.8186 11.8424C98.7975 11.9056 98.7975 11.9475 98.7765 11.9686C98.7555 11.9896 98.7344 12.0106 98.6924 12.0106H97.2621C97.1569 12.0106 97.1148 11.9475 97.1359 11.8213C97.1779 11.4217 97.1359 11.1061 97.0307 10.8747C96.9255 10.6433 96.7152 10.5382 96.3787 10.5382C95.8949 10.5382 95.6635 10.8116 95.6635 11.3585C95.6635 11.6319 95.7056 11.8633 95.8106 12.0526C95.9158 12.242 96.0842 12.4313 96.3154 12.5996L97.6827 13.6093C98.1245 13.9248 98.419 14.2824 98.6294 14.661C98.8186 15.0395 98.9238 15.5023 98.9238 16.0492C98.9238 16.8696 98.7134 17.5006 98.2928 17.8792C97.872 18.321 97.241 18.5103 96.4207 18.5103Z" fill="black"/>
<path d="M106.666 18.4262C106.56 18.4262 106.518 18.3631 106.518 18.2579V9.38135C106.518 9.2762 106.56 9.23413 106.666 9.23413H108.748C109.863 9.23413 110.683 9.54965 111.209 10.2018C111.735 10.8539 112.008 11.8425 112.008 13.1887V14.3035C112.008 15.6917 111.735 16.7225 111.209 17.3955C110.683 18.0686 109.863 18.4263 108.748 18.4263L106.666 18.4262ZM108.222 16.8486H108.706C109.253 16.8486 109.653 16.6383 109.905 16.2176C110.157 15.797 110.284 15.1449 110.284 14.2403V13.1675C110.284 12.3262 110.157 11.6952 109.926 11.3165C109.673 10.9379 109.274 10.7486 108.727 10.7486H108.243V16.8486H108.222Z" fill="black"/>
<path d="M117.496 18.5103C116.613 18.5103 115.94 18.2578 115.519 17.7531C115.077 17.2483 114.93 16.5752 115.056 15.7127C115.077 15.6076 115.119 15.5655 115.203 15.5655H116.613C116.718 15.5655 116.76 15.6287 116.739 15.7549C116.697 16.2176 116.739 16.5542 116.865 16.7646C116.991 16.975 117.202 17.0801 117.496 17.0801C117.77 17.0801 117.959 16.996 118.085 16.8487C118.211 16.7015 118.275 16.4701 118.275 16.1756C118.275 15.86 118.211 15.5866 118.106 15.3763C118.001 15.1659 117.812 14.9556 117.517 14.7453L116.213 13.7777C115.813 13.4831 115.498 13.1466 115.309 12.768C115.119 12.3894 115.014 11.9266 115.014 11.3797C115.035 10.6856 115.246 10.1176 115.666 9.71795C116.087 9.31828 116.676 9.10791 117.433 9.10791C118.338 9.10791 119.011 9.33936 119.41 9.82309C119.831 10.3069 119.978 10.98 119.894 11.8424C119.873 11.9056 119.873 11.9475 119.852 11.9686C119.831 11.9896 119.81 12.0106 119.768 12.0106H118.338C118.232 12.0106 118.19 11.9475 118.211 11.8213C118.254 11.4217 118.211 11.1061 118.106 10.8747C118.001 10.6433 117.791 10.5382 117.454 10.5382C116.97 10.5382 116.739 10.8116 116.739 11.3585C116.739 11.6319 116.781 11.8633 116.886 12.0526C116.991 12.242 117.16 12.4313 117.391 12.5996L118.758 13.6093C119.2 13.9248 119.494 14.2824 119.705 14.661C119.894 15.0395 119.999 15.5023 119.999 16.0492C119.999 16.8696 119.789 17.5006 119.368 17.8792C118.948 18.321 118.317 18.5103 117.496 18.5103Z" fill="black"/>
</svg>
