<svg xmlns="http://www.w3.org/2000/svg" version="1.1" xmlns:xlink="http://www.w3.org/1999/xlink" xmlns:svgjs="http://svgjs.dev/svgjs" width="2000" height="1247" viewBox="0 0 2000 1247"><g transform="matrix(1,0,0,1,-1.2121212121212466,0.504858299595071)"><svg viewBox="0 0 396 247" data-background-color="#000000" preserveAspectRatio="xMidYMid meet" height="1247" width="2000" xmlns="http://www.w3.org/2000/svg" xmlns:xlink="http://www.w3.org/1999/xlink"><g id="tight-bounds" transform="matrix(1,0,0,1,0.2400000000000091,-0.09999999999999432)"><svg viewBox="0 0 395.52 247.2" height="247.2" width="395.52"><rect width="395.52" height="247.2" fill="url(#8ca0d031-ca04-4928-beb4-56701d01e1a9)" mask="url(#5b17e856-6480-4332-a63d-4286a38f00bd)" data-fill-palette-color="tertiary"></rect><g><svg></svg></g><g><svg viewBox="0 0 395.52 247.2" height="247.2" width="395.52"><mask id="01a1662c-1837-477d-b603-a8fe35099b56"><rect width="395.52" height="247.2" fill="white"></rect><g transform="matrix(1,0,0,1,148.725,37.08)" id="clone"><svg viewBox="0 0 98.07 173.04" height="173.04" width="98.07"><g><svg viewBox="0 0 98.07 173.04" height="173.04" width="98.07"><g><svg viewBox="0 0 98.07 173.04" height="173.04" width="98.07"><g><svg viewBox="0 0 98.07 173.04" height="173.04" width="98.07"><g id="SvgjsG1362"><svg viewBox="0 0 98.07 173.04" height="173.04" width="98.07" id="SvgjsSvg1361"><g><svg viewBox="0 0 98.07 173.04" height="173.04" width="98.07"><g transform="matrix(1,0,0,1,0,0)"><svg width="98.07" viewBox="-1 -38.5 24.35 42.2" height="173.04" data-palette-color="url(#cd92ccad-4462-417c-baae-392e277ff11b)"><path d="M10.35 0.7Q6.05 0.7 4.03-0.98 2-2.65 2-5.05L2-5.05Q2-6.65 2.88-7.83 3.75-9 5.45-9L5.45-9Q6.35-9 6.95-8.7 7.55-8.4 7.95-7.75L7.95-7.75Q7.25-6.4 7.25-4.95L7.25-4.95Q7.25-3.5 8.15-2.5 9.05-1.5 10.35-1.5L10.35-1.5Q12.55-1.5 13.3-3.45 14.05-5.4 14.05-8.95L14.05-8.95 14.05-29.9Q14.05-31.1 14.13-31.8 14.2-32.5 14.45-32.95L14.45-32.95Q13.7-32.95 12-33.05L12-33.05 9.9-33.1Q8.9-33.1 8.25-32.63 7.6-32.15 7.6-31.1L7.6-31.1Q7.6-29.15 9.15-28.25L9.15-28.25Q8.25-27.55 6.65-27.55L6.65-27.55Q5.2-27.55 4.08-28.6 2.95-29.65 2.95-31.45L2.95-31.45Q2.95-33.3 4.35-34.4 5.75-35.5 8.35-35.5L8.35-35.5Q9.7-35.5 11.4-35.35L11.4-35.35 15.5-35.2Q17.85-35.2 20.35-35.5L20.35-35.5Q20.1-34.1 20.1-31.65L20.1-31.65 20.1-9.6Q20.1 0.7 10.35 0.7L10.35 0.7Z" opacity="1" transform="matrix(1,0,0,1,0,0)" fill="black" class="wordmark-text-0" id="SvgjsPath1360" stroke-width="5" stroke="black" stroke-linejoin="round"></path></svg></g></svg></g></svg></g></svg></g></svg></g></svg></g></svg></g></mask><g mask="url(#01a1662c-1837-477d-b603-a8fe35099b56)"><g><path d="M193.367 219.972c-15.263 0-26.48-2.982-33.65-8.945-7.206-5.928-10.809-13.151-10.809-21.67v0c0-5.679 1.562-10.613 4.686-14.802 3.088-4.153 7.649-6.23 13.684-6.23v0c3.195 0 5.857 0.532 7.986 1.597 2.13 1.065 3.905 2.751 5.325 5.059v0c-2.485 4.792-3.727 9.761-3.727 14.908v0c0 5.147 1.597 9.495 4.792 13.045 3.195 3.55 7.099 5.324 11.713 5.324v0c7.809 0 13.045-3.461 15.707-10.382 2.662-6.922 3.993-16.683 3.994-29.285v0-111.546c0-4.26 0.142-7.632 0.426-10.117 0.248-2.485 0.816-4.526 1.703-6.123v0c-2.662 0-7.01-0.177-13.044-0.532v0l-11.182-0.266c-3.55 0-6.478 0.834-8.785 2.502-2.307 1.704-3.461 4.419-3.461 8.146v0c0 6.922 2.751 11.98 8.253 15.175v0c-3.195 2.485-7.632 3.727-13.311 3.727v0c-5.147 0-9.708-1.864-13.684-5.59-4.011-3.727-6.017-8.785-6.016-15.175v0c0-6.567 2.485-11.802 7.454-15.707 4.969-3.905 12.069-5.857 21.298-5.857v0c4.792 0 10.205 0.266 16.239 0.799v0l21.83 0.798c8.342 0 16.949-0.532 25.823-1.597v0c-0.887 4.969-1.331 11.802-1.331 20.499v0 117.403c0 36.561-17.304 54.841-51.913 54.842z" fill="url(#8ca0d031-ca04-4928-beb4-56701d01e1a9)" fill-rule="nonzero" stroke="none" stroke-width="1" stroke-linecap="butt" stroke-linejoin="miter" stroke-miterlimit="10" stroke-dasharray="" stroke-dashoffset="0" font-family="none" font-weight="none" font-size="none" text-anchor="none" style="mix-blend-mode: normal" data-fill-palette-color="tertiary"></path></g></g><g transform="matrix(1,0,0,1,148.725,37.08)"><svg viewBox="0 0 98.07 173.04" height="173.04" width="98.07"><g><svg viewBox="0 0 98.07 173.04" height="173.04" width="98.07"><g><svg viewBox="0 0 98.07 173.04" height="173.04" width="98.07"><g><svg viewBox="0 0 98.07 173.04" height="173.04" width="98.07"><g id="textblocktransform"><svg viewBox="0 0 98.07 173.04" height="173.04" width="98.07" id="textblock"><g><svg viewBox="0 0 98.07 173.04" height="173.04" width="98.07"><g transform="matrix(1,0,0,1,0,0)"><svg width="98.07" viewBox="-1 -38.5 24.35 42.2" height="173.04" data-palette-color="url(#cd92ccad-4462-417c-baae-392e277ff11b)"></svg></g></svg></g></svg></g></svg></g></svg></g></svg></g></svg></g></svg></g><defs></defs><mask id="4af86cf7-c04f-4dda-9a25-9bc7df68edbf"><g id="SvgjsG1372"><svg viewBox="0 0 395.52 247.2" height="247.2" width="395.52"><g><svg></svg></g><g><svg viewBox="0 0 395.52 247.2" height="247.2" width="395.52"><mask id="SvgjsMask1371"><rect width="395.52" height="247.2" fill="black"></rect><g transform="matrix(1,0,0,1,148.725,37.08)" id="SvgjsG1370"><svg viewBox="0 0 98.07 173.04" height="173.04" width="98.07"><g><svg viewBox="0 0 98.07 173.04" height="173.04" width="98.07"><g><svg viewBox="0 0 98.07 173.04" height="173.04" width="98.07"><g><svg viewBox="0 0 98.07 173.04" height="173.04" width="98.07"><g id="SvgjsG1369"><svg viewBox="0 0 98.07 173.04" height="173.04" width="98.07" id="SvgjsSvg1368"><g><svg viewBox="0 0 98.07 173.04" height="173.04" width="98.07"><g transform="matrix(1,0,0,1,0,0)"><svg width="98.07" viewBox="-1 -38.5 24.35 42.2" height="173.04" data-palette-color="url(#cd92ccad-4462-417c-baae-392e277ff11b)"><path d="M10.35 0.7Q6.05 0.7 4.03-0.98 2-2.65 2-5.05L2-5.05Q2-6.65 2.88-7.83 3.75-9 5.45-9L5.45-9Q6.35-9 6.95-8.7 7.55-8.4 7.95-7.75L7.95-7.75Q7.25-6.4 7.25-4.95L7.25-4.95Q7.25-3.5 8.15-2.5 9.05-1.5 10.35-1.5L10.35-1.5Q12.55-1.5 13.3-3.45 14.05-5.4 14.05-8.95L14.05-8.95 14.05-29.9Q14.05-31.1 14.13-31.8 14.2-32.5 14.45-32.95L14.45-32.95Q13.7-32.95 12-33.05L12-33.05 9.9-33.1Q8.9-33.1 8.25-32.63 7.6-32.15 7.6-31.1L7.6-31.1Q7.6-29.15 9.15-28.25L9.15-28.25Q8.25-27.55 6.65-27.55L6.65-27.55Q5.2-27.55 4.08-28.6 2.95-29.65 2.95-31.45L2.95-31.45Q2.95-33.3 4.35-34.4 5.75-35.5 8.35-35.5L8.35-35.5Q9.7-35.5 11.4-35.35L11.4-35.35 15.5-35.2Q17.85-35.2 20.35-35.5L20.35-35.5Q20.1-34.1 20.1-31.65L20.1-31.65 20.1-9.6Q20.1 0.7 10.35 0.7L10.35 0.7Z" opacity="1" transform="matrix(1,0,0,1,0,0)" fill="black" class="wordmark-text-0" id="SvgjsPath1367" stroke-width="5" stroke="black" stroke-linejoin="round"></path></svg></g></svg></g></svg></g></svg></g></svg></g></svg></g></svg></g></mask><g mask="url(#01a1662c-1837-477d-b603-a8fe35099b56)"><g><path d="M193.367 219.972c-15.263 0-26.48-2.982-33.65-8.945-7.206-5.928-10.809-13.151-10.809-21.67v0c0-5.679 1.562-10.613 4.686-14.802 3.088-4.153 7.649-6.23 13.684-6.23v0c3.195 0 5.857 0.532 7.986 1.597 2.13 1.065 3.905 2.751 5.325 5.059v0c-2.485 4.792-3.727 9.761-3.727 14.908v0c0 5.147 1.597 9.495 4.792 13.045 3.195 3.55 7.099 5.324 11.713 5.324v0c7.809 0 13.045-3.461 15.707-10.382 2.662-6.922 3.993-16.683 3.994-29.285v0-111.546c0-4.26 0.142-7.632 0.426-10.117 0.248-2.485 0.816-4.526 1.703-6.123v0c-2.662 0-7.01-0.177-13.044-0.532v0l-11.182-0.266c-3.55 0-6.478 0.834-8.785 2.502-2.307 1.704-3.461 4.419-3.461 8.146v0c0 6.922 2.751 11.98 8.253 15.175v0c-3.195 2.485-7.632 3.727-13.311 3.727v0c-5.147 0-9.708-1.864-13.684-5.59-4.011-3.727-6.017-8.785-6.016-15.175v0c0-6.567 2.485-11.802 7.454-15.707 4.969-3.905 12.069-5.857 21.298-5.857v0c4.792 0 10.205 0.266 16.239 0.799v0l21.83 0.798c8.342 0 16.949-0.532 25.823-1.597v0c-0.887 4.969-1.331 11.802-1.331 20.499v0 117.403c0 36.561-17.304 54.841-51.913 54.842z" fill="black" fill-rule="nonzero" stroke="none" stroke-width="1" stroke-linecap="butt" stroke-linejoin="miter" stroke-miterlimit="10" stroke-dasharray="" stroke-dashoffset="0" font-family="none" font-weight="none" font-size="none" text-anchor="none" style="mix-blend-mode: normal"></path></g></g><g transform="matrix(1,0,0,1,148.725,37.08)"><svg viewBox="0 0 98.07 173.04" height="173.04" width="98.07"><g><svg viewBox="0 0 98.07 173.04" height="173.04" width="98.07"><g><svg viewBox="0 0 98.07 173.04" height="173.04" width="98.07"><g><svg viewBox="0 0 98.07 173.04" height="173.04" width="98.07"><g id="SvgjsG1366"><svg viewBox="0 0 98.07 173.04" height="173.04" width="98.07" id="SvgjsSvg1365"><g><svg viewBox="0 0 98.07 173.04" height="173.04" width="98.07"><g transform="matrix(1,0,0,1,0,0)"><svg width="98.07" viewBox="-1 -38.5 24.35 42.2" height="173.04" data-palette-color="url(#cd92ccad-4462-417c-baae-392e277ff11b)"><path d="M10.35 0.7Q6.05 0.7 4.03-0.98 2-2.65 2-5.05L2-5.05Q2-6.65 2.88-7.83 3.75-9 5.45-9L5.45-9Q6.35-9 6.95-8.7 7.55-8.4 7.95-7.75L7.95-7.75Q7.25-6.4 7.25-4.95L7.25-4.95Q7.25-3.5 8.15-2.5 9.05-1.5 10.35-1.5L10.35-1.5Q12.55-1.5 13.3-3.45 14.05-5.4 14.05-8.95L14.05-8.95 14.05-29.9Q14.05-31.1 14.13-31.8 14.2-32.5 14.45-32.95L14.45-32.95Q13.7-32.95 12-33.05L12-33.05 9.9-33.1Q8.9-33.1 8.25-32.63 7.6-32.15 7.6-31.1L7.6-31.1Q7.6-29.15 9.15-28.25L9.15-28.25Q8.25-27.55 6.65-27.55L6.65-27.55Q5.2-27.55 4.08-28.6 2.95-29.65 2.95-31.45L2.95-31.45Q2.95-33.3 4.35-34.4 5.75-35.5 8.35-35.5L8.35-35.5Q9.7-35.5 11.4-35.35L11.4-35.35 15.5-35.2Q17.85-35.2 20.35-35.5L20.35-35.5Q20.1-34.1 20.1-31.65L20.1-31.65 20.1-9.6Q20.1 0.7 10.35 0.7L10.35 0.7Z" opacity="1" transform="matrix(1,0,0,1,0,0)" fill="white" class="wordmark-text-0" id="SvgjsPath1364"></path></svg></g></svg></g></svg></g></svg></g></svg></g></svg></g></svg></g></svg></g><defs><mask></mask></defs></svg><rect width="395.52" height="247.2" fill="black" stroke="none" visibility="hidden"></rect></g></mask><linearGradient x1="0" x2="1" y1="0.5" y2="0.5" id="cd92ccad-4462-417c-baae-392e277ff11b"><stop stop-color="#f00b51" offset="0"></stop><stop stop-color="#730062" offset="1"></stop></linearGradient><rect width="395.52" height="247.2" fill="url(#cd92ccad-4462-417c-baae-392e277ff11b)" mask="url(#4af86cf7-c04f-4dda-9a25-9bc7df68edbf)" data-fill-palette-color="primary"></rect><mask id="5b17e856-6480-4332-a63d-4286a38f00bd"><g id="SvgjsG1425"><svg viewBox="0 0 395.52 247.2" height="247.2" width="395.52"><g><svg></svg></g><g><svg viewBox="0 0 395.52 247.2" height="247.2" width="395.52"><mask id="SvgjsMask1424"><rect width="395.52" height="247.2" fill="black"></rect><g transform="matrix(1,0,0,1,148.725,37.08)" id="SvgjsG1423"><svg viewBox="0 0 98.07 173.04" height="173.04" width="98.07"><g><svg viewBox="0 0 98.07 173.04" height="173.04" width="98.07"><g><svg viewBox="0 0 98.07 173.04" height="173.04" width="98.07"><g><svg viewBox="0 0 98.07 173.04" height="173.04" width="98.07"><g id="SvgjsG1422"><svg viewBox="0 0 98.07 173.04" height="173.04" width="98.07" id="SvgjsSvg1421"><g><svg viewBox="0 0 98.07 173.04" height="173.04" width="98.07"><g transform="matrix(1,0,0,1,0,0)"><svg width="98.07" viewBox="-1 -38.5 24.35 42.2" height="173.04" data-palette-color="url(#cd92ccad-4462-417c-baae-392e277ff11b)"><path d="M10.35 0.7Q6.05 0.7 4.03-0.98 2-2.65 2-5.05L2-5.05Q2-6.65 2.88-7.83 3.75-9 5.45-9L5.45-9Q6.35-9 6.95-8.7 7.55-8.4 7.95-7.75L7.95-7.75Q7.25-6.4 7.25-4.95L7.25-4.95Q7.25-3.5 8.15-2.5 9.05-1.5 10.35-1.5L10.35-1.5Q12.55-1.5 13.3-3.45 14.05-5.4 14.05-8.95L14.05-8.95 14.05-29.9Q14.05-31.1 14.13-31.8 14.2-32.5 14.45-32.95L14.45-32.95Q13.7-32.95 12-33.05L12-33.05 9.9-33.1Q8.9-33.1 8.25-32.63 7.6-32.15 7.6-31.1L7.6-31.1Q7.6-29.15 9.15-28.25L9.15-28.25Q8.25-27.55 6.65-27.55L6.65-27.55Q5.2-27.55 4.08-28.6 2.95-29.65 2.95-31.45L2.95-31.45Q2.95-33.3 4.35-34.4 5.75-35.5 8.35-35.5L8.35-35.5Q9.7-35.5 11.4-35.35L11.4-35.35 15.5-35.2Q17.85-35.2 20.35-35.5L20.35-35.5Q20.1-34.1 20.1-31.65L20.1-31.65 20.1-9.6Q20.1 0.7 10.35 0.7L10.35 0.7Z" opacity="1" transform="matrix(1,0,0,1,0,0)" fill="black" class="wordmark-text-0" id="SvgjsPath1420" stroke-width="5" stroke="black" stroke-linejoin="round"></path></svg></g></svg></g></svg></g></svg></g></svg></g></svg></g></svg></g></mask><g mask="url(#01a1662c-1837-477d-b603-a8fe35099b56)"><g><path d="M193.367 219.972c-15.263 0-26.48-2.982-33.65-8.945-7.206-5.928-10.809-13.151-10.809-21.67v0c0-5.679 1.562-10.613 4.686-14.802 3.088-4.153 7.649-6.23 13.684-6.23v0c3.195 0 5.857 0.532 7.986 1.597 2.13 1.065 3.905 2.751 5.325 5.059v0c-2.485 4.792-3.727 9.761-3.727 14.908v0c0 5.147 1.597 9.495 4.792 13.045 3.195 3.55 7.099 5.324 11.713 5.324v0c7.809 0 13.045-3.461 15.707-10.382 2.662-6.922 3.993-16.683 3.994-29.285v0-111.546c0-4.26 0.142-7.632 0.426-10.117 0.248-2.485 0.816-4.526 1.703-6.123v0c-2.662 0-7.01-0.177-13.044-0.532v0l-11.182-0.266c-3.55 0-6.478 0.834-8.785 2.502-2.307 1.704-3.461 4.419-3.461 8.146v0c0 6.922 2.751 11.98 8.253 15.175v0c-3.195 2.485-7.632 3.727-13.311 3.727v0c-5.147 0-9.708-1.864-13.684-5.59-4.011-3.727-6.017-8.785-6.016-15.175v0c0-6.567 2.485-11.802 7.454-15.707 4.969-3.905 12.069-5.857 21.298-5.857v0c4.792 0 10.205 0.266 16.239 0.799v0l21.83 0.798c8.342 0 16.949-0.532 25.823-1.597v0c-0.887 4.969-1.331 11.802-1.331 20.499v0 117.403c0 36.561-17.304 54.841-51.913 54.842z" fill="white" fill-rule="nonzero" stroke="none" stroke-width="1" stroke-linecap="butt" stroke-linejoin="miter" stroke-miterlimit="10" stroke-dasharray="" stroke-dashoffset="0" font-family="none" font-weight="none" font-size="none" text-anchor="none" style="mix-blend-mode: normal"></path></g></g><g transform="matrix(1,0,0,1,148.725,37.08)"><svg viewBox="0 0 98.07 173.04" height="173.04" width="98.07"><g><svg viewBox="0 0 98.07 173.04" height="173.04" width="98.07"><g><svg viewBox="0 0 98.07 173.04" height="173.04" width="98.07"><g><svg viewBox="0 0 98.07 173.04" height="173.04" width="98.07"><g id="SvgjsG1419"><svg viewBox="0 0 98.07 173.04" height="173.04" width="98.07" id="SvgjsSvg1418"><g><svg viewBox="0 0 98.07 173.04" height="173.04" width="98.07"><g transform="matrix(1,0,0,1,0,0)"><svg width="98.07" viewBox="-1 -38.5 24.35 42.2" height="173.04" data-palette-color="url(#cd92ccad-4462-417c-baae-392e277ff11b)"></svg></g></svg></g></svg></g></svg></g></svg></g></svg></g></svg></g></svg></g><defs><mask></mask></defs><mask><g id="SvgjsG1417"><svg viewBox="0 0 395.52 247.2" height="247.2" width="395.52"><g><svg></svg></g><g><svg viewBox="0 0 395.52 247.2" height="247.2" width="395.52"><mask id="SvgjsMask1416"><rect width="395.52" height="247.2" fill="black"></rect><g transform="matrix(1,0,0,1,148.725,37.08)" id="SvgjsG1415"><svg viewBox="0 0 98.07 173.04" height="173.04" width="98.07"><g><svg viewBox="0 0 98.07 173.04" height="173.04" width="98.07"><g><svg viewBox="0 0 98.07 173.04" height="173.04" width="98.07"><g><svg viewBox="0 0 98.07 173.04" height="173.04" width="98.07"><g id="SvgjsG1414"><svg viewBox="0 0 98.07 173.04" height="173.04" width="98.07" id="SvgjsSvg1413"><g><svg viewBox="0 0 98.07 173.04" height="173.04" width="98.07"><g transform="matrix(1,0,0,1,0,0)"><svg width="98.07" viewBox="-1 -38.5 24.35 42.2" height="173.04" data-palette-color="url(#cd92ccad-4462-417c-baae-392e277ff11b)"><path d="M10.35 0.7Q6.05 0.7 4.03-0.98 2-2.65 2-5.05L2-5.05Q2-6.65 2.88-7.83 3.75-9 5.45-9L5.45-9Q6.35-9 6.95-8.7 7.55-8.4 7.95-7.75L7.95-7.75Q7.25-6.4 7.25-4.95L7.25-4.95Q7.25-3.5 8.15-2.5 9.05-1.5 10.35-1.5L10.35-1.5Q12.55-1.5 13.3-3.45 14.05-5.4 14.05-8.95L14.05-8.95 14.05-29.9Q14.05-31.1 14.13-31.8 14.2-32.5 14.45-32.95L14.45-32.95Q13.7-32.95 12-33.05L12-33.05 9.9-33.1Q8.9-33.1 8.25-32.63 7.6-32.15 7.6-31.1L7.6-31.1Q7.6-29.15 9.15-28.25L9.15-28.25Q8.25-27.55 6.65-27.55L6.65-27.55Q5.2-27.55 4.08-28.6 2.95-29.65 2.95-31.45L2.95-31.45Q2.95-33.3 4.35-34.4 5.75-35.5 8.35-35.5L8.35-35.5Q9.7-35.5 11.4-35.35L11.4-35.35 15.5-35.2Q17.85-35.2 20.35-35.5L20.35-35.5Q20.1-34.1 20.1-31.65L20.1-31.65 20.1-9.6Q20.1 0.7 10.35 0.7L10.35 0.7Z" opacity="1" transform="matrix(1,0,0,1,0,0)" fill="black" class="wordmark-text-0" id="SvgjsPath1412" stroke-width="5" stroke="black" stroke-linejoin="round"></path></svg></g></svg></g></svg></g></svg></g></svg></g></svg></g></svg></g></mask><g mask="url(#01a1662c-1837-477d-b603-a8fe35099b56)"><g><path d="M193.367 219.972c-15.263 0-26.48-2.982-33.65-8.945-7.206-5.928-10.809-13.151-10.809-21.67v0c0-5.679 1.562-10.613 4.686-14.802 3.088-4.153 7.649-6.23 13.684-6.23v0c3.195 0 5.857 0.532 7.986 1.597 2.13 1.065 3.905 2.751 5.325 5.059v0c-2.485 4.792-3.727 9.761-3.727 14.908v0c0 5.147 1.597 9.495 4.792 13.045 3.195 3.55 7.099 5.324 11.713 5.324v0c7.809 0 13.045-3.461 15.707-10.382 2.662-6.922 3.993-16.683 3.994-29.285v0-111.546c0-4.26 0.142-7.632 0.426-10.117 0.248-2.485 0.816-4.526 1.703-6.123v0c-2.662 0-7.01-0.177-13.044-0.532v0l-11.182-0.266c-3.55 0-6.478 0.834-8.785 2.502-2.307 1.704-3.461 4.419-3.461 8.146v0c0 6.922 2.751 11.98 8.253 15.175v0c-3.195 2.485-7.632 3.727-13.311 3.727v0c-5.147 0-9.708-1.864-13.684-5.59-4.011-3.727-6.017-8.785-6.016-15.175v0c0-6.567 2.485-11.802 7.454-15.707 4.969-3.905 12.069-5.857 21.298-5.857v0c4.792 0 10.205 0.266 16.239 0.799v0l21.83 0.798c8.342 0 16.949-0.532 25.823-1.597v0c-0.887 4.969-1.331 11.802-1.331 20.499v0 117.403c0 36.561-17.304 54.841-51.913 54.842z" fill="black" fill-rule="nonzero" stroke="none" stroke-width="1" stroke-linecap="butt" stroke-linejoin="miter" stroke-miterlimit="10" stroke-dasharray="" stroke-dashoffset="0" font-family="none" font-weight="none" font-size="none" text-anchor="none" style="mix-blend-mode: normal"></path></g></g><g transform="matrix(1,0,0,1,148.725,37.08)"><svg viewBox="0 0 98.07 173.04" height="173.04" width="98.07"><g><svg viewBox="0 0 98.07 173.04" height="173.04" width="98.07"><g><svg viewBox="0 0 98.07 173.04" height="173.04" width="98.07"><g><svg viewBox="0 0 98.07 173.04" height="173.04" width="98.07"><g id="SvgjsG1411"><svg viewBox="0 0 98.07 173.04" height="173.04" width="98.07" id="SvgjsSvg1410"><g><svg viewBox="0 0 98.07 173.04" height="173.04" width="98.07"><g transform="matrix(1,0,0,1,0,0)"><svg width="98.07" viewBox="-1 -38.5 24.35 42.2" height="173.04" data-palette-color="url(#cd92ccad-4462-417c-baae-392e277ff11b)"><path d="M10.35 0.7Q6.05 0.7 4.03-0.98 2-2.65 2-5.05L2-5.05Q2-6.65 2.88-7.83 3.75-9 5.45-9L5.45-9Q6.35-9 6.95-8.7 7.55-8.4 7.95-7.75L7.95-7.75Q7.25-6.4 7.25-4.95L7.25-4.95Q7.25-3.5 8.15-2.5 9.05-1.5 10.35-1.5L10.35-1.5Q12.55-1.5 13.3-3.45 14.05-5.4 14.05-8.95L14.05-8.95 14.05-29.9Q14.05-31.1 14.13-31.8 14.2-32.5 14.45-32.95L14.45-32.95Q13.7-32.95 12-33.05L12-33.05 9.9-33.1Q8.9-33.1 8.25-32.63 7.6-32.15 7.6-31.1L7.6-31.1Q7.6-29.15 9.15-28.25L9.15-28.25Q8.25-27.55 6.65-27.55L6.65-27.55Q5.2-27.55 4.08-28.6 2.95-29.65 2.95-31.45L2.95-31.45Q2.95-33.3 4.35-34.4 5.75-35.5 8.35-35.5L8.35-35.5Q9.7-35.5 11.4-35.35L11.4-35.35 15.5-35.2Q17.85-35.2 20.35-35.5L20.35-35.5Q20.1-34.1 20.1-31.65L20.1-31.65 20.1-9.6Q20.1 0.7 10.35 0.7L10.35 0.7Z" opacity="1" transform="matrix(1,0,0,1,0,0)" fill="black" class="wordmark-text-0" id="SvgjsPath1409"></path></svg></g></svg></g></svg></g></svg></g></svg></g></svg></g></svg></g></svg></g><defs><mask></mask></defs></svg><rect width="395.52" height="247.2" fill="black" stroke="none" visibility="hidden"></rect></g></mask></svg><rect width="395.52" height="247.2" fill="black" stroke="none" visibility="hidden"></rect></g></mask><linearGradient x1="0" x2="1" y1="0.5" y2="0.5" id="8ca0d031-ca04-4928-beb4-56701d01e1a9"><stop stop-color="#f00b51" offset="0"></stop><stop stop-color="#730062" offset="1"></stop></linearGradient></svg><rect width="395.52" height="247.2" fill="none" stroke="none" visibility="hidden"></rect></g></svg></g></svg>